# xmcd
#
# Track frame offsets:
#	150
#	18276
#	30471
#	43384
#	60719
#	70142
#	88271
#	96199
#	108856
#	125117
#	140001
#	157236
#	172126
#	188618
#
# Disc length: 2756 seconds
#
# Revision: 1
# Processed by: cddbd v1.5.2PL0 Copyright (c) Steve Scherf et al.
# Submitted via: audiograbber 1.83.01
#
DISCID=cb0ac20e
DTITLE=Philip Chaffin - Warm Spring Night
DYEAR=1900
DGENRE=
TTITLE0=Warm Spring Night
TTITLE1=There's a Room in My House
TTITLE2=Don't Ever Leave Me
TTITLE3=Haunted Heart
TTITLE4=Heaven in My Arms
TTITLE5=Evening Star
TTITLE6=My Romance
TTITLE7=Out of My Dreams
TTITLE8=When in Love
TTITLE9=Silly People
TTITLE10=Sailing at Midnight
TTITLE11=That's All
TTITLE12=If It Is True
TTITLE13=You've Come Home - You're Far Away From Home
EXTD=
EXTT0=
EXTT1=
EXTT2=
EXTT3=
EXTT4=
EXTT5=
EXTT6=
EXTT7=
EXTT8=
EXTT9=
EXTT10=
EXTT11=
EXTT12=
EXTT13=
PLAYORDER=
